<?xml version="1.0" encoding="utf-8"?>
<!-- Generator: Adobe Illustrator 19.0.0, SVG Export Plug-In . SVG Version: 6.00 Build 0)  -->
<svg version="1.1" id="Capa_1" xmlns="http://www.w3.org/2000/svg" xmlns:xlink="http://www.w3.org/1999/xlink" x="0px" y="0px"
	 viewBox="42 0 170.1 85" style="enable-background:new 42 0 170.1 85;" xml:space="preserve">
<style type="text/css">
	.st0{stroke:#000000;stroke-miterlimit:10;}
	.st1{stroke:#1D1D1B;stroke-width:0.25;stroke-miterlimit:10;}
	.st2{fill:#FFFFFF;stroke:#FFFFFF;stroke-width:0.5;stroke-miterlimit:10;}
	.st3{fill:#FFFFFF;stroke:#FFFFFF;stroke-width:0.4;stroke-miterlimit:10;}
	.st4{fill:#FFFFFF;}
	.st5{fill:none;stroke:#000000;stroke-miterlimit:10;}
	.st6{fill:none;stroke:#000000;stroke-linecap:square;stroke-miterlimit:10;}
	.st7{fill:none;stroke:#000000;stroke-linecap:round;stroke-miterlimit:10;}
	.st8{fill:none;stroke:#000000;stroke-width:2;stroke-miterlimit:10;}
</style>
<g id="XMLID_9717_">
	<rect id="XMLID_10361_" x="53.3" y="53.1" width="147.4" height="20.1"/>
	<g id="XMLID_10291_">
		<g>
			<g id="XMLID_218_">
				<g>
					<path id="XMLID_233_" class="st0" d="M64.2,35.7H62l-4.6-12.5h-1.7v-1.9h5.7v1.9h-1.7l3.6,9.9h0.1l3.8-9.9h-1.6v-1.9h5v1.9
						h-1.4L64.2,35.7z"/>
					<path id="XMLID_230_" class="st0" d="M82.9,33.8c1.5,0,3.1-0.5,4.6-1.4v2c-1.5,0.8-3.2,1.3-4.8,1.3c-2.1,0-3.8-0.6-5.1-1.9
						c-1.2-1.3-1.9-3-1.9-5.1c0-2.3,0.6-4.2,1.8-5.5c1.2-1.3,2.8-2,4.8-2c1.7,0,3.1,0.6,4,1.7s1.4,2.7,1.4,4.7v1.1h-9.8
						c0.1,1.6,0.5,2.8,1.3,3.7C80.1,33.4,81.3,33.8,82.9,33.8z M85.7,26.9c-0.1-2.5-1.3-3.7-3.6-3.7c-1.2,0-2.1,0.3-2.8,1
						c-0.7,0.7-1.1,1.6-1.2,2.7H85.7z"/>
					<path id="XMLID_227_" class="st0" d="M101.7,17v-1.9h4.3v18.7h2.1v1.9H104l-0.1-1.8h-0.1c-1.1,1.2-2.4,1.8-3.9,1.8
						c-1.7,0-3.2-0.7-4.3-2c-1.1-1.3-1.7-3-1.7-5c0-2.3,0.6-4.1,1.9-5.4c1.2-1.4,2.9-2,4.8-2c1.1,0,2.2,0.2,3.2,0.7h0.1v-5H101.7z
						 M103.8,23.8c-1-0.4-2-0.6-3.1-0.6c-1.5,0-2.6,0.4-3.4,1.3s-1.1,2.2-1.1,4c0,1.7,0.4,3.1,1.1,4c0.7,0.9,1.7,1.4,3.1,1.4
						s2.6-0.5,3.5-1.6L103.8,23.8L103.8,23.8z"/>
					<path id="XMLID_224_" class="st0" d="M114,22.5c1.8-0.8,3.6-1.2,5.4-1.2c1.6,0,2.8,0.4,3.6,1.1c0.8,0.7,1.2,1.9,1.2,3.4v8h2.1
						v1.9h-4.1l-0.1-2.1H122c-1.3,1.4-2.8,2.1-4.6,2.1c-1.4,0-2.5-0.3-3.3-1S113,33,113,31.8c0-3.1,2.5-4.6,7.6-4.6h1.5v-1.4
						c0-0.8-0.2-1.5-0.7-1.9s-1.3-0.7-2.3-0.7c-1.6,0-3.3,0.4-5.1,1.2V22.5z M120.4,29c-3.3,0-4.9,0.9-4.9,2.6
						c0,0.7,0.2,1.3,0.7,1.6c0.4,0.4,1.1,0.5,1.9,0.5c1.5,0,2.9-0.7,4.2-2.1V29H120.4z"/>
					<path id="XMLID_222_" class="st0" d="M131.4,33.8h2.1V23.1h-2.1v-1.9h4.2l0.1,2l0,0c1.4-1.4,2.9-2,4.7-2c1.4,0,2.5,0.4,3.1,1.2
						c0.7,0.8,1,1.9,1,3.2v8.1h2.1v1.9h-6.4v-1.9h2.1v-7.9c0-1-0.2-1.7-0.7-2.1s-1.1-0.6-1.9-0.6c-1.6,0-3,0.7-4.2,2.2v8.5h2.1v1.9
						h-6.4v-1.9H131.4z"/>
					<path id="XMLID_219_" class="st0" d="M152.3,22.5c1.8-0.8,3.6-1.2,5.4-1.2c1.6,0,2.8,0.4,3.6,1.1s1.2,1.9,1.2,3.4v8h2.1v1.9
						h-4.1l-0.1-2.1h-0.1c-1.3,1.4-2.8,2.1-4.6,2.1c-1.4,0-2.5-0.3-3.3-1s-1.1-1.7-1.1-2.9c0-3.1,2.5-4.6,7.6-4.6h1.5v-1.4
						c0-0.8-0.2-1.5-0.7-1.9s-1.3-0.7-2.3-0.7c-1.6,0-3.3,0.4-5.1,1.2L152.3,22.5L152.3,22.5z M158.7,29c-3.3,0-4.9,0.9-4.9,2.6
						c0,0.7,0.2,1.3,0.7,1.6c0.4,0.4,1.1,0.5,1.9,0.5c1.5,0,2.9-0.7,4.2-2.1V29H158.7z"/>
				</g>
			</g>
			<g id="XMLID_214_">
				<g id="XMLID_215_">
					<g id="XMLID_216_">
						<path id="XMLID_217_" class="st1" d="M84,15.1c0.2,0.3,0.3,0.6,0.3,0.9c0,1-0.9,1.9-2,1.9s-2-0.8-2-1.9c0-0.3,0.1-0.7,0.3-0.9
							c0.3,0.6,1,0.9,1.7,0.9C83.1,16,83.7,15.6,84,15.1z"/>
					</g>
				</g>
			</g>
			<g id="XMLID_211_">
				<g id="XMLID_212_">
					<path id="XMLID_213_" class="st1" d="M155.7,16c0-0.3,0.1-0.7,0.3-0.9c0.3,0.6,1,0.9,1.7,0.9s1.4-0.4,1.7-0.9
						c0.2,0.3,0.3,0.6,0.3,0.9c0,1-0.9,1.9-2,1.9C156.6,17.9,155.7,17.1,155.7,16z"/>
				</g>
			</g>
		</g>
	</g>
	<g id="XMLID_10224_">
		<g>
			<path id="XMLID_194_" class="st2" d="M74.1,59.8v3.8c0,0.7-0.2,1.3-0.6,1.7c-0.4,0.4-1,0.6-1.7,0.6s-1.3-0.2-1.7-0.6
				c-0.4-0.4-0.6-0.9-0.6-1.7v-3.8H70v3.7c0,0.6,0.2,1.1,0.5,1.5c0.3,0.3,0.8,0.5,1.4,0.5s1.1-0.2,1.4-0.5s0.5-0.8,0.5-1.5v-3.7
				H74.1z"/>
			<path id="XMLID_192_" class="st3" d="M82.7,59.8v6h-0.6L79,61.1l-0.4-0.8l0,0V61v4.7h-0.4v-6h0.6l3.2,4.7l0.5,0.8v-0.7v-4.7H82.7
				z"/>
			<path id="XMLID_190_" class="st2" d="M106.6,64.3c-0.1,0.3-0.3,0.6-0.5,0.9c-0.2,0.2-0.5,0.4-0.8,0.6s-0.7,0.2-1.1,0.2
				c-0.5,0-1-0.1-1.4-0.4c-0.4-0.2-0.7-0.6-0.9-1.1c-0.2-0.5-0.3-1-0.3-1.6s0.1-1.2,0.3-1.6c0.2-0.5,0.5-0.8,0.9-1.1
				c0.4-0.2,0.9-0.4,1.4-0.4c0.4,0,0.8,0.1,1.1,0.2c0.3,0.1,0.6,0.3,0.8,0.5c0.2,0.2,0.4,0.5,0.5,0.8l-0.4,0.2
				c-0.1-0.4-0.4-0.7-0.7-0.9c-0.3-0.2-0.7-0.3-1.2-0.3c-0.4,0-0.8,0.1-1.2,0.3c-0.3,0.2-0.6,0.5-0.8,0.9c-0.2,0.4-0.3,0.9-0.3,1.4
				s0.1,1,0.3,1.4c0.2,0.4,0.4,0.7,0.8,0.9c0.3,0.2,0.7,0.3,1.2,0.3s0.9-0.1,1.2-0.3c0.3-0.2,0.6-0.6,0.7-1L106.6,64.3z"/>
			<path id="XMLID_188_" class="st3" d="M123.7,59.8v6h-0.6l-3.2-4.7l-0.4-0.8l0,0V61v4.7h-0.4v-6h0.6l3.2,4.7l0.5,0.8v-0.7v-4.7
				C123.4,59.8,123.7,59.8,123.7,59.8z"/>
			<path id="XMLID_186_" class="st2" d="M134,65.8v-6h4.1v0.4h-3.6v2.3h2.9V63h-2.9v2.4h3.8v0.4H134z"/>
			<path id="XMLID_184_" class="st2" d="M142.3,65.4h3.6v0.4h-4v-6h0.5v5.6H142.3z"/>
			<path id="XMLID_182_" class="st2" d="M158.5,59.8v0.4h-2.2v5.5h-0.5v-5.5h-2.2v-0.4C153.6,59.8,158.5,59.8,158.5,59.8z"/>
			<path id="XMLID_179_" class="st2" d="M172.4,59.8c1,0,1.7,0.3,2.2,0.8s0.8,1.2,0.8,2.2s-0.3,1.7-0.8,2.2s-1.2,0.8-2.2,0.8h-1.9
				v-6C170.5,59.8,172.4,59.8,172.4,59.8z M172.4,65.4c0.8,0,1.4-0.2,1.8-0.7c0.4-0.5,0.6-1.1,0.6-1.9c0-0.8-0.2-1.4-0.6-1.9
				c-0.4-0.4-1-0.7-1.8-0.7h-1.5v5.1L172.4,65.4L172.4,65.4z"/>
			<circle id="XMLID_178_" class="st4" cx="112.6" cy="62.8" r="3.1"/>
			<g id="XMLID_177_">
				<path d="M181.4,65.4c-1.4,0-2.6-1.2-2.6-2.6s1.2-2.6,2.6-2.6c1.4,0,2.6,1.2,2.6,2.6C184,64.3,182.8,65.4,181.4,65.4z"/>
				<path class="st4" d="M181.4,60.7c1.2,0,2.1,1,2.1,2.1c0,1.2-1,2.1-2.1,2.1s-2.1-1-2.1-2.1C179.3,61.6,180.2,60.7,181.4,60.7
					 M181.4,59.7c-1.7,0-3.1,1.4-3.1,3.1c0,1.7,1.4,3.1,3.1,3.1c1.7,0,3.1-1.4,3.1-3.1S183.1,59.7,181.4,59.7L181.4,59.7z"/>
			</g>
			<g id="XMLID_176_">
				<g>
					<path class="st4" d="M90.8,65.8c-0.5,0.3-1,0.4-1.6,0.4c-1.7,0-3.1-1.4-3.1-3.1c0-1.7,1.4-3.1,3.1-3.1c0.6,0,1.1,0.2,1.6,0.4
						c-0.9,0.5-1.5,1.5-1.5,2.7C89.3,64.2,89.9,65.2,90.8,65.8z"/>
				</g>
			</g>
			<g id="XMLID_174_">
				<g id="XMLID_175_">
					<path class="st4" d="M167.2,62.8c0,1.7-1.4,3.1-3.1,3.1c-0.6,0-1.1-0.1-1.6-0.4c0.9-0.5,1.6-1.6,1.6-2.7c0-1.2-0.6-2.2-1.6-2.7
						c0.5-0.3,1-0.4,1.6-0.4C165.8,59.7,167.2,61.1,167.2,62.8z"/>
				</g>
			</g>
		</g>
	</g>
	<g id="XMLID_9812_">
		<g id="XMLID_10153_">
			<path d="M212.1,78.5V85h-3.5c0-1.7-1.4-3-3-3v-1.2h2.3v-5.4h1.2C209.1,77.1,210.4,78.5,212.1,78.5z"/>
			<path d="M212.1,67.2v5.2c-1.7,0-3,1.4-3,3h-1.2V64.2h1.2C209.1,65.9,210.4,67.2,212.1,67.2z"/>
			<path d="M212.1,56v5.2c-1.7,0-3,1.4-3,3h-1.2V52.9h1.2C209.1,54.6,210.4,56,212.1,56z"/>
			<path d="M212.1,44.7v5.2c-1.7,0-3,1.4-3,3h-1.2V41.7h1.2C209.1,43.4,210.4,44.7,212.1,44.7z"/>
			<path d="M212.1,33.5v5.2c-1.7,0-3,1.4-3,3h-1.2V30.4h1.2C209,32.1,210.4,33.5,212.1,33.5z"/>
			<path d="M212.1,22.3v5.2c-1.7,0-3,1.4-3,3h-1.2V19.2h1.2C209,20.8,210.4,22.3,212.1,22.3z"/>
			<path d="M212.1,11v5.2c-1.7,0-3,1.4-3,3h-1.2V7.9h1.2C209,9.6,210.4,11,212.1,11z"/>
			<path d="M212.1,0v4.9c-1.7,0-3,1.4-3,3h-1.2V4.2H206V3c1.7,0,3-1.3,3-3H212.1z"/>
			<path d="M206,3v1.2h-11.2V3c1.7,0,3-1.3,3-3h5.2C203,1.7,204.3,3,206,3z"/>
			<path d="M205.6,80.8V82c-1.7,0-3,1.4-3,3h-5.2c0-1.7-1.4-3-3-3v-1.2H205.6z"/>
			<path d="M194.8,3v1.2h-11.3V3c1.7,0,3-1.3,3-3h5.2C191.8,1.7,193.2,3,194.8,3z"/>
			<path d="M194.3,80.8V82c-1.7,0-3,1.4-3,3h-5.2c0-1.7-1.3-3-3-3v-1.2H194.3z"/>
			<path d="M183.5,3v1.2h-11.2V3c1.7,0,3-1.3,3-3h5.2C180.5,1.7,181.8,3,183.5,3z"/>
			<path d="M183.1,80.8V82c-1.7,0-3,1.4-3,3h-5.2c0-1.7-1.4-3-3-3v-1.2H183.1z"/>
			<path d="M172.3,3v1.2H161V3c1.7,0,3-1.3,3-3h5.2C169.2,1.7,170.6,3,172.3,3z"/>
			<path d="M171.9,80.8V82c-1.7,0-3,1.4-3,3h-5.2c0-1.7-1.4-3-3-3v-1.2H171.9z"/>
			<path d="M161,3v1.2h-11.2V3c1.7,0,3-1.3,3-3h5.2C158,1.7,159.3,3,161,3z"/>
			<path d="M160.6,80.8V82c-1.7,0-3,1.4-3,3h-5.2c0-1.7-1.4-3-3-3v-1.2H160.6z"/>
			<path d="M149.8,3v1.2h-11.2V3c1.7,0,3-1.3,3-3h5.2C146.7,1.7,148.1,3,149.8,3z"/>
			<path d="M149.4,80.8V82c-1.7,0-3,1.4-3,3h-5.2c0-1.7-1.4-3-3-3v-1.2H149.4z"/>
			<path d="M138.6,3v1.2h-11.3V3c1.7,0,3-1.3,3-3h5.2C135.6,1.7,136.9,3,138.6,3z"/>
			<path d="M138.1,80.8V82c-1.7,0-3,1.4-3,3h-5.2c0-1.7-1.4-3-3-3v-1.2H138.1z"/>
			<path d="M127.3,3v1.2H116V3c1.7,0,3-1.3,3-3h5.2C124.2,1.7,125.6,3,127.3,3z"/>
			<path d="M126.9,80.8V82c-1.7,0-3,1.4-3,3h-5.2c0-1.7-1.4-3-3-3v-1.2H126.9z"/>
			<path d="M116,3v1.2h-11.2V3c1.7,0,3-1.3,3-3h5.2C113,1.7,114.3,3,116,3z"/>
			<path d="M115.6,80.8V82c-1.7,0-3,1.4-3,3h-5.2c0-1.7-1.4-3-3-3v-1.2H115.6z"/>
			<path d="M104.8,3v1.2H93.5V3c1.7,0,3-1.3,3-3h5.2C101.7,1.7,103.1,3,104.8,3z"/>
			<path d="M104.4,80.8V82c-1.7,0-3,1.4-3,3h-5.2c0-1.7-1.3-3-3-3v-1.2H104.4z"/>
			<path d="M93.5,3v1.2H82.3V3c1.7,0,3-1.3,3-3h5.2C90.5,1.7,91.8,3,93.5,3z"/>
			<path d="M93.1,80.8V82c-1.7,0-3,1.4-3,3h-5.2c0-1.7-1.4-3-3-3v-1.2H93.1z"/>
			<path d="M82.3,3v1.2H71V3c1.7,0,3-1.4,3-3h5.2C79.3,1.7,80.6,3,82.3,3z"/>
			<path d="M81.9,80.8V82c-1.7,0-3,1.4-3,3h-5.2c0-1.7-1.4-3-3-3v-1.2H81.9z"/>
			<path d="M71,3v1.2H59.8V3c1.7,0,3-1.4,3-3H68C68,1.7,69.4,3,71,3z"/>
			<path d="M70.6,80.8V82c-1.7,0-3,1.4-3,3h-5.2c0-1.7-1.4-3-3-3v-1.2H70.6z"/>
			<path d="M59.8,3v1.2H48.5V3c1.7,0,3-1.4,3-3h5.2C56.7,1.7,58.1,3,59.8,3z"/>
			<path d="M59.4,80.8V82c-1.7,0-3,1.4-3,3h-5.2c0-1.7-1.4-3-3-3v-1.2H59.4z"/>
			<path d="M48.5,3v1.2h-2.2v5.4h-1.2c0-1.7-1.3-3-3-3V0h3.5C45.5,1.7,46.9,3,48.5,3z"/>
			<path d="M48.1,80.8V82c-1.7,0-3,1.4-3,3h-3v-4.9c1.7,0,3-1.4,3-3h1.2v3.7C46.3,80.8,48.1,80.8,48.1,80.8z"/>
			<path d="M46.3,65.8v11.4h-1.2c0-1.7-1.3-3-3-3V69c1.7,0,3-1.4,3-3h1.2V65.8z"/>
			<path d="M46.3,54.6v11.3h-1.2c0-1.7-1.3-3-3-3v-5.2c1.7,0,3-1.4,3-3h1.2V54.6z"/>
			<path d="M46.3,43.3v11.4h-1.2c0-1.7-1.3-3-3-3v-5.3c1.7,0,3-1.4,3-3h1.2V43.3z"/>
			<path d="M46.3,32.1v11.3h-1.2c0-1.7-1.3-3-3-3v-5.2c1.7,0,3-1.4,3-3L46.3,32.1L46.3,32.1z"/>
			<path d="M46.3,20.7v11.5h-1.2c0-1.7-1.3-3-3-3v-5.3c1.7,0,3-1.4,3-3h1.2V20.7z"/>
			<path d="M46.3,9.6v11.2h-1.2c0-1.7-1.3-3-3-3v-5.2c1.7,0,3-1.4,3-3C45.1,9.6,46.3,9.6,46.3,9.6z"/>
		</g>
		<g id="XMLID_10040_">
			<polygon class="st5" points="207.9,75.4 207.9,80.8 205.6,80.8 194.3,80.8 183.1,80.8 171.9,80.8 160.6,80.8 149.4,80.8 
				138.1,80.8 126.9,80.8 115.6,80.8 104.4,80.8 93.1,80.8 81.9,80.8 70.6,80.8 59.4,80.8 48.1,80.8 46.3,80.8 46.3,77.1 46.3,65.9 
				46.3,54.6 46.3,43.4 46.3,32.1 46.3,20.9 46.3,9.6 46.3,4.3 48.5,4.3 59.8,4.3 71,4.3 82.3,4.3 93.5,4.3 104.8,4.3 116,4.3 
				127.3,4.3 138.5,4.3 149.8,4.3 161,4.3 172.3,4.3 183.5,4.3 194.7,4.3 206,4.3 207.9,4.3 207.9,7.9 207.9,19.2 207.9,30.4 
				207.9,41.7 207.9,52.9 207.9,64.2 			"/>
		</g>
	</g>
	<g id="XMLID_9750_">
		<path id="XMLID_9811_" class="st5" d="M195.1,12.6c0,1.4,1.2,1.8,1.2,4.2c0,2.3-1.2,2-1.2,3.9"/>
		<path id="XMLID_9810_" class="st5" d="M178.5,12.6c0,1.4,1.2,1.8,1.2,4.2c0,2.3-1.2,2-1.2,3.9"/>
		<line id="XMLID_9809_" class="st6" x1="175.2" y1="30.3" x2="199.3" y2="30.3"/>
		<g id="XMLID_9802_">
			<path id="XMLID_9808_" class="st5" d="M199.4,36.2c-1.4,0-1.8,1.2-4.2,1.2c-2.3,0-2-1.2-3.9-1.2"/>
			<path id="XMLID_9807_" class="st5" d="M191.3,36.2c-1.4,0-1.8,1.2-4.2,1.2c-2.3,0-2-1.2-3.9-1.2"/>
			<path id="XMLID_9806_" class="st5" d="M199.4,32.8c-1.4,0-1.8,1.2-4.2,1.2c-2.3,0-2-1.2-3.9-1.2"/>
			<path id="XMLID_9805_" class="st5" d="M191.3,32.8c-1.4,0-1.8,1.2-4.2,1.2c-2.3,0-2-1.2-3.9-1.2"/>
			<path id="XMLID_9804_" class="st5" d="M183.1,36.2c-1.4,0-1.8,1.2-4.2,1.2c-2.3,0-2-1.2-3.9-1.2"/>
			<path id="XMLID_9803_" class="st5" d="M183.1,32.8c-1.4,0-1.8,1.2-4.2,1.2c-2.3,0-2-1.2-3.9-1.2"/>
		</g>
		<g id="XMLID_9785_">
			<line id="XMLID_9801_" class="st7" x1="175.3" y1="22.4" x2="179.3" y2="24.8"/>
			<line id="XMLID_9800_" class="st7" x1="183.3" y1="22.4" x2="187.3" y2="24.8"/>
			<line id="XMLID_9799_" class="st7" x1="183.3" y1="22.4" x2="179.3" y2="24.8"/>
			<line id="XMLID_9798_" class="st7" x1="191.3" y1="22.4" x2="195.4" y2="24.8"/>
			<line id="XMLID_9797_" class="st7" x1="191.3" y1="22.4" x2="187.3" y2="24.8"/>
			<line id="XMLID_9796_" class="st7" x1="199.4" y1="22.3" x2="195.4" y2="24.7"/>
			<line id="XMLID_9795_" class="st6" x1="175.4" y1="22.4" x2="175.3" y2="22.4"/>
			<line id="XMLID_9794_" class="st6" x1="199.4" y1="22.3" x2="199.2" y2="22.4"/>
			<line id="XMLID_9793_" class="st7" x1="175.3" y1="25.8" x2="179.3" y2="28.2"/>
			<line id="XMLID_9792_" class="st7" x1="183.3" y1="25.8" x2="187.3" y2="28.2"/>
			<line id="XMLID_9791_" class="st7" x1="183.3" y1="25.8" x2="179.3" y2="28.2"/>
			<line id="XMLID_9790_" class="st7" x1="191.3" y1="25.8" x2="195.4" y2="28.2"/>
			<line id="XMLID_9789_" class="st7" x1="191.3" y1="25.8" x2="187.3" y2="28.2"/>
			<line id="XMLID_9788_" class="st7" x1="199.4" y1="25.7" x2="195.4" y2="28.1"/>
			<line id="XMLID_9787_" class="st6" x1="175.4" y1="25.8" x2="175.3" y2="25.8"/>
			<line id="XMLID_9786_" class="st6" x1="199.4" y1="25.7" x2="199.2" y2="25.8"/>
		</g>
		<path id="XMLID_9784_" class="st5" d="M181.8,12.6c0,1.4,1.2,1.8,1.2,4.2c0,2.3-1.2,2-1.2,3.9"/>
		<path id="XMLID_9783_" class="st5" d="M175.2,12.6c0,1.4,1.2,1.8,1.2,4.2c0,2.3-1.2,2-1.2,3.9"/>
		<path id="XMLID_9782_" class="st5" d="M185.2,12.6c0,1.4,1.2,1.8,1.2,4.2c0,2.3-1.2,2-1.2,3.9"/>
		<path id="XMLID_9779_" class="st5" d="M191.7,12.6c0,1.4,1.2,1.8,1.2,4.2c0,2.3-1.2,2-1.2,3.9"/>
		<path id="XMLID_9754_" class="st5" d="M188.5,12.6c0,1.4,1.2,1.8,1.2,4.2c0,2.3-1.2,2-1.2,3.9"/>
		<path id="XMLID_9753_" class="st5" d="M198.5,12.6c0,1.4,1.2,1.8,1.2,4.2c0,2.3-1.2,2-1.2,3.9"/>
		<circle id="XMLID_9751_" cx="187.4" cy="19.1" r="3"/>
	</g>
	<line id="XMLID_9718_" class="st8" x1="53.3" y1="45.3" x2="200.7" y2="45.3"/>
</g>
</svg>
